<svg xmlns="http://www.w3.org/2000/svg" version="1.1" xmlns:xlink="http://www.w3.org/1999/xlink" xmlns:svgjs="http://svgjs.dev/svgjs" width="400" height="400"><svg width="400" height="400" viewBox="0 0 400 400" fill="none" xmlns="http://www.w3.org/2000/svg">
<g clip-path="url(#clip0_4_136)">
<g clip-path="url(#clip1_4_136)">
<path d="M332.899 220.176C348.981 202.455 366.927 145.652 368.022 132.772L389.172 123.714C346.117 319.022 180.358 283.644 180.358 283.644L167.522 269.285C167.522 269.285 260.226 294.341 322.873 230.106C322.873 230.106 323.787 190.322 300.245 153.123C297.382 148.62 293.964 146.534 290.506 146.513C286.473 146.491 280.703 149.174 273.158 154.559L269.241 148.727L278.436 142.608C287.355 136.571 293.646 132.698 297.275 130.984C299.351 130.015 301.246 129.527 302.971 129.536C304.705 129.548 306.343 130.547 307.898 132.538C315.082 141.714 321.104 154.081 325.959 169.631C330.739 184.958 335.272 216.59 332.899 220.176Z" fill="url(#paint0_linear_4_136)"></path>
<mask id="SvgjsMask1035" style="mask-type:luminance" maskUnits="userSpaceOnUse" x="14" y="13" width="526" height="327">
<path d="M14.9998 13H540V339.001H14.9998V13Z" fill="white"></path>
</mask>
<g mask="url(#mask0_4_136)">
<path d="M385.68 303.876L384.082 309.136C382.816 308.443 380.316 307.431 376.973 307.431C372.833 307.431 371.034 309.667 371.034 311.731C371.034 314.488 373.1 315.765 377.879 317.618C384.082 319.96 387.116 323.088 387.116 328.229C387.116 333.966 382.753 339 373.526 339C369.756 339 365.84 337.894 363.881 336.723L365.297 331.306C367.426 332.53 370.62 333.593 373.963 333.593C378.144 333.593 380.476 331.624 380.476 328.707C380.476 326.005 378.677 324.407 374.121 322.768C368.226 320.641 364.468 317.511 364.468 312.371C364.468 306.527 369.332 302.078 377.079 302.078C380.954 302.078 383.817 302.919 385.68 303.876Z" fill="#5DAF8A"></path>
</g>
<mask id="SvgjsMask1034" style="mask-type:luminance" maskUnits="userSpaceOnUse" x="14" y="13" width="526" height="327">
<path d="M14.9998 12.9999H540V339.001H14.9998V12.9999Z" fill="white"></path>
</mask>
<g mask="url(#mask1_4_136)">
<path d="M300.563 338.947H300.032V302.121H308.291L317.679 317.712C319.564 320.853 321.244 324.077 322.68 327.207C322.425 323.376 322.319 319.523 322.319 315.128V302.121H329.429V338.947H321.861L312.368 322.929C310.485 319.725 308.514 316.149 306.897 312.722C307.056 316.627 307.1 320.725 307.1 325.632V338.947H300.563Z" fill="#5DAF8A"></path>
</g>
<mask id="SvgjsMask1033" style="mask-type:luminance" maskUnits="userSpaceOnUse" x="14" y="13" width="526" height="327">
<path d="M14.9998 13H540V339.001H14.9998V13Z" fill="white"></path>
</mask>
<g mask="url(#mask2_4_136)">
<path d="M264.856 318.682V336.776C262.589 337.627 258.118 338.787 253.35 338.787C247.305 338.787 242.739 337.254 239.343 334.019C236.151 330.986 234.309 326.272 234.352 320.852C234.352 309.56 242.419 302.291 254.255 302.291C258.651 302.291 262.097 303.185 263.748 303.983L262.323 309.24C260.353 308.391 257.958 307.698 254.191 307.698C246.549 307.698 241.195 312.21 241.195 320.534C241.195 328.655 246.198 333.486 253.617 333.486C255.946 333.486 257.693 333.168 258.544 332.741V323.823H252.233V318.682H264.856Z" fill="#92AFA2"></path>
</g>
<mask id="SvgjsMask1032" style="mask-type:luminance" maskUnits="userSpaceOnUse" x="14" y="13" width="526" height="327">
<path d="M14.9998 12.9999H540V339.001H14.9998V12.9999Z" fill="white"></path>
</mask>
<g mask="url(#mask3_4_136)">
<path d="M238.035 135.54C246.059 137.263 252.125 141.958 256.044 149.482C257.257 151.813 258.172 154.325 258.779 157.006C259.384 159.7 259.694 162.553 259.694 165.597C259.694 169.375 259.224 173.43 258.289 177.751C256.342 186.745 252.912 194.95 248.008 202.349C243.099 209.746 236.714 216.345 228.87 222.135C222.644 226.712 216.534 230.15 210.554 232.449C204.56 234.748 198.696 235.897 192.938 235.897C189.904 235.897 186.924 235.577 183.987 234.95C175.259 233.066 168.746 228.648 164.625 221.752C163.254 219.475 162.231 217.048 161.56 214.439C160.881 211.842 160.539 209.085 160.539 206.169C160.539 203.147 160.9 199.955 161.624 196.591C163.456 188.087 166.436 180.157 170.567 172.823C174.684 165.49 179.962 158.731 186.382 152.569C192.78 146.504 199.356 141.948 206.113 138.904C212.872 135.86 219.812 134.326 226.923 134.326C230.584 134.326 234.287 134.73 238.035 135.54ZM237.811 136.582C234.137 135.784 230.498 135.39 226.923 135.39C219.961 135.39 213.182 136.881 206.55 139.872C199.92 142.863 193.437 147.343 187.117 153.336C180.772 159.435 175.558 166.108 171.492 173.344C167.425 180.593 164.487 188.417 162.668 196.815C161.966 200.113 161.605 203.231 161.605 206.169C161.605 209.001 161.934 211.662 162.584 214.174C163.244 216.675 164.223 219.017 165.531 221.198C167.521 224.519 170.066 227.233 173.172 229.352C176.282 231.458 179.962 232.98 184.21 233.907C187.084 234.525 189.98 234.833 192.938 234.833C198.546 234.833 204.284 233.715 210.17 231.458C216.045 229.202 222.07 225.807 228.232 221.274C235.991 215.557 242.293 209.054 247.124 201.763C251.967 194.472 255.341 186.394 257.267 177.529C258.182 173.26 258.639 169.291 258.639 165.597C258.639 162.627 258.342 159.849 257.757 157.242C257.171 154.645 256.276 152.229 255.107 149.983C253.191 146.332 250.807 143.404 247.932 141.181C245.048 138.945 241.684 137.423 237.811 136.582Z" fill="#5DAF8A"></path>
</g>
<mask id="SvgjsMask1031" style="mask-type:luminance" maskUnits="userSpaceOnUse" x="14" y="13" width="526" height="327">
<path d="M14.9998 12.9999H540V339.001H14.9998V12.9999Z" fill="white"></path>
</mask>
<g mask="url(#mask4_4_136)">
<path d="M237.736 171.014C238.098 168.15 238.279 165.523 238.279 163.117C238.279 159.158 237.789 155.816 236.788 153.09C234.618 147.129 230.913 143.468 225.804 142.384C224.751 142.159 223.664 142.042 222.57 142.042C219.44 142.054 216.195 142.969 212.809 144.789C209.435 146.608 205.933 149.312 202.294 152.91C197.995 157.168 194.3 162.532 191.213 168.981C188.137 175.43 185.669 182.987 183.806 191.631C182.752 196.484 182.221 200.966 182.221 205.073C182.221 209.885 182.945 214.184 184.401 217.973C186.382 223.157 189.958 226.381 194.949 227.446C196.132 227.7 197.324 227.829 198.514 227.829C201.463 227.829 204.444 227.052 207.465 225.54C210.489 224.008 213.533 221.741 216.62 218.739C221.377 214.025 225.389 208.458 228.636 202.05C231.893 195.633 234.394 188.384 236.128 180.294C236.841 176.963 237.374 173.877 237.736 171.014ZM257.757 157.242C258.34 159.849 258.64 162.628 258.64 165.597C258.64 169.291 258.182 173.26 257.266 177.529C255.339 186.394 251.965 194.472 247.124 201.762C242.291 209.054 235.99 215.557 228.232 221.274C222.07 225.807 216.045 229.202 210.171 231.458C204.284 233.715 198.547 234.832 192.938 234.832C189.979 234.832 187.084 234.525 184.21 233.907C179.962 232.98 176.282 231.458 173.173 229.351C170.065 227.233 167.521 224.519 165.532 221.198C164.223 219.017 163.244 216.675 162.584 214.174C161.934 211.662 161.604 209.001 161.604 206.168C161.604 203.231 161.965 200.113 162.668 196.814C164.488 188.417 167.425 180.593 171.491 173.344C175.558 166.107 180.772 159.435 187.115 153.336C193.437 147.343 199.921 142.862 206.55 139.872C213.182 136.881 219.961 135.39 226.923 135.39C230.499 135.39 234.138 135.784 237.811 136.582C241.684 137.423 245.048 138.947 247.932 141.181C250.808 143.404 253.19 146.331 255.107 149.982C256.277 152.229 257.171 154.645 257.757 157.242Z" fill="#5DAF8A"></path>
</g>
<mask id="SvgjsMask1030" style="mask-type:luminance" maskUnits="userSpaceOnUse" x="14" y="13" width="526" height="327">
<path d="M14.9998 12.9999H540V339.001H14.9998V12.9999Z" fill="white"></path>
</mask>
<g mask="url(#mask5_4_136)">
<path d="M225.581 143.427C224.603 143.213 223.602 143.107 222.57 143.107H222.537C216.728 143.107 210.211 146.588 203.04 153.666C198.833 157.816 195.204 163.074 192.171 169.439C189.139 175.804 186.691 183.274 184.848 191.865C183.806 196.655 183.284 201.061 183.284 205.073C183.305 209.778 183.996 213.951 185.403 217.59C186.349 220.049 187.627 222.006 189.245 223.466C190.872 224.923 192.843 225.903 195.172 226.404C196.281 226.648 197.407 226.765 198.515 226.765C201.272 226.765 204.103 226.041 206.997 224.582C209.893 223.124 212.853 220.931 215.885 217.984C220.547 213.354 224.484 207.883 227.69 201.571C230.882 195.249 233.351 188.086 235.076 180.072C235.79 176.772 236.32 173.707 236.682 170.887C237.033 168.056 237.216 165.469 237.216 163.117C237.216 159.242 236.736 156.028 235.79 153.463C234.734 150.59 233.351 148.333 231.659 146.672C229.967 145.012 227.944 143.937 225.581 143.427ZM225.805 142.384C230.914 143.468 234.619 147.129 236.789 153.09C237.79 155.816 238.28 159.158 238.28 163.117C238.28 165.523 238.098 168.15 237.735 171.014C237.374 173.877 236.842 176.963 236.129 180.296C234.393 188.384 231.893 195.633 228.635 202.05C225.39 208.458 221.378 214.025 216.619 218.74C213.532 221.741 210.49 224.008 207.467 225.54C204.443 227.052 201.464 227.829 198.515 227.829C197.323 227.829 196.131 227.7 194.948 227.446C189.957 226.381 186.382 223.157 184.402 217.973C182.944 214.184 182.22 209.885 182.22 205.073C182.22 200.966 182.753 196.484 183.806 191.631C185.668 182.987 188.138 175.43 191.214 168.981C194.301 162.532 197.994 157.168 202.293 152.91C205.932 149.312 209.434 146.608 212.808 144.789C216.194 142.969 219.441 142.054 222.57 142.042C223.665 142.042 224.752 142.159 225.805 142.384Z" fill="#35644F"></path>
</g>
<mask id="SvgjsMask1029" style="mask-type:luminance" maskUnits="userSpaceOnUse" x="14" y="13" width="526" height="327">
<path d="M14.9998 12.9999H540V339.001H14.9998V12.9999Z" fill="white"></path>
</mask>
<g mask="url(#mask6_4_136)">
<path d="M237.215 163.117C237.215 165.47 237.034 168.056 236.682 170.887C236.319 173.708 235.789 176.772 235.075 180.071C233.35 188.087 230.881 195.25 227.689 201.572C224.485 207.883 220.548 213.354 215.886 217.984C212.852 220.932 209.892 223.124 206.998 224.583C204.102 226.041 201.273 226.765 198.514 226.765C197.408 226.765 196.28 226.647 195.173 226.402C192.842 225.902 190.873 224.923 189.245 223.465C187.626 222.007 186.35 220.049 185.403 217.59C183.997 213.951 183.304 209.777 183.285 205.073C183.285 201.061 183.805 196.653 184.849 191.865C186.691 183.275 189.138 175.804 192.172 169.439C195.204 163.074 198.834 157.817 203.039 153.665C210.212 146.588 216.727 143.107 222.538 143.107H222.569C223.601 143.107 224.602 143.214 225.58 143.427C227.943 143.938 229.966 145.013 231.66 146.672C233.35 148.334 234.735 150.59 235.789 153.464C236.737 156.028 237.215 159.242 237.215 163.117Z" fill="#35644F"></path>
</g>
<mask id="SvgjsMask1028" style="mask-type:luminance" maskUnits="userSpaceOnUse" x="14" y="13" width="526" height="327">
<path d="M14.9998 12.9999H540V339.001H14.9998V12.9999Z" fill="white"></path>
</mask>
<g mask="url(#mask7_4_136)">
<path d="M210.978 253.118C212.926 253.171 189.84 263.805 187.967 263.688C117.944 259.409 52.786 172.282 41.1 156.582C40.6735 156.007 38.737 152.601 38.4377 152.219C38.4377 152.219 42.7905 150.014 43.2274 149.833C48.729 147.493 54.9994 143.948 62.035 139.202C70.1766 133.698 117.019 101.768 125.012 87.7932L144.926 88.0374C130.323 115.881 68.1317 144.118 50.3576 155.187C54.5419 160.403 114.57 250.734 210.978 253.118Z" fill="#92AFA2"></path>
</g>
<mask id="SvgjsMask1027" style="mask-type:luminance" maskUnits="userSpaceOnUse" x="14" y="13" width="526" height="327">
<path d="M14.9998 12.9999H540V339.001H14.9998V12.9999Z" fill="white"></path>
</mask>
<g mask="url(#mask8_4_136)">
<path d="M199.708 338.416H193.183V302.655H199.708V338.416Z" fill="#92AFA2"></path>
</g>
<mask id="SvgjsMask1026" style="mask-type:luminance" maskUnits="userSpaceOnUse" x="14" y="13" width="526" height="327">
<path d="M14.9998 13H540V339.001H14.9998V13Z" fill="white"></path>
</mask>
<g mask="url(#mask9_4_136)">
<path d="M156.835 303.876L155.239 309.136C153.961 308.443 151.471 307.431 148.139 307.431C143.988 307.431 142.189 309.667 142.189 311.731C142.189 314.488 144.256 315.765 149.034 317.618C155.239 319.96 158.262 323.088 158.262 328.229C158.262 333.966 153.909 339 144.681 339C140.913 339 136.985 337.894 135.026 336.723L136.453 331.306C138.583 332.53 141.764 333.593 145.107 333.593C149.3 333.593 151.641 331.624 151.641 328.707C151.641 326.005 149.833 324.407 145.266 322.768C139.381 320.641 135.612 317.511 135.612 312.371C135.612 306.527 140.498 302.078 148.236 302.078C152.11 302.078 154.972 302.919 156.835 303.876Z" fill="#92AFA2"></path>
</g>
<mask id="SvgjsMask1025" style="mask-type:luminance" maskUnits="userSpaceOnUse" x="14" y="13" width="526" height="327">
<path d="M14.9998 12.9999H540V339.001H14.9998V12.9999Z" fill="white"></path>
</mask>
<g mask="url(#mask10_4_136)">
<path d="M101.862 333.061V338.415H80.2764V302.653H101.064V308.017H86.791V317.246H100.266V322.556H86.791V333.061H101.862Z" fill="#677D73"></path>
</g>
<mask id="SvgjsMask1024" style="mask-type:luminance" maskUnits="userSpaceOnUse" x="14" y="13" width="526" height="327">
<path d="M14.9998 12.9999H540V339.001H14.9998V12.9999Z" fill="white"></path>
</mask>
<g mask="url(#mask11_4_136)">
<path d="M44.6112 219.24C44.6112 219.24 55.5956 214.577 62.9184 216.099C40.5129 233.619 24.4105 246.753 15.2767 254.48C15.2767 254.48 17.0343 231.894 16.6938 226.456L24.825 127.769C25.2945 117.041 26.0374 96.1277 26.0374 96.1277C27.5818 95.5309 51.3064 87.8142 51.3064 87.8142C47.3784 94.8602 37.5755 118.798 33.9365 174.547L31.3912 229.074C37.3623 222.251 44.6112 219.24 44.6112 219.24Z" fill="#677D73"></path>
</g>
<mask id="SvgjsMask1023" style="mask-type:luminance" maskUnits="userSpaceOnUse" x="14" y="13" width="526" height="327">
<path d="M14.9998 13H540V339.001H14.9998V13Z" fill="white"></path>
</mask>
<g mask="url(#mask12_4_136)">
<path d="M38.6827 319.905C38.736 311.998 34.1596 307.485 25.9854 307.485C23.92 307.485 22.4409 307.645 21.5243 307.858V333.433C22.4409 333.593 23.8133 333.593 25.1341 333.593C33.6282 333.647 38.6827 328.974 38.6827 319.905ZM40.0035 306.527C43.4414 309.348 45.5688 313.583 45.5688 319.692C45.5688 326.057 43.3966 330.826 40.0035 333.913C36.447 337.148 30.7648 338.787 23.8133 338.787C19.9937 338.787 17.1302 338.574 14.9994 338.309V303.132C17.8646 302.652 21.5243 302.386 25.399 302.386C32.0838 302.386 36.7135 303.77 40.0035 306.527Z" fill="#677D73"></path>
</g>
</g>
</g>
<defs>
<linearGradient id="SvgjsLinearGradient1022" x1="167.521" y1="204.93" x2="389.172" y2="204.93" gradientUnits="userSpaceOnUse">
<stop stop-color="#92AFA2"></stop>
<stop offset="0.024292" stop-color="#92AFA2"></stop>
<stop offset="0.362151" stop-color="#92AFA2"></stop>
<stop offset="0.931168" stop-color="#5DAF8A"></stop>
<stop offset="1" stop-color="#5DAF8A"></stop>
</linearGradient>
<clipPath id="SvgjsClipPath1021">
<rect width="400" height="400" fill="white"></rect>
</clipPath>
<clipPath id="SvgjsClipPath1020">
<rect width="525" height="326" fill="white" transform="translate(15 13)"></rect>
</clipPath>
</defs>
</svg><style>@media (prefers-color-scheme: light) { :root { filter: none; } }
@media (prefers-color-scheme: dark) { :root { filter: none; } }
</style></svg>