<svg viewBox="0 0 500 200" xmlns="http://www.w3.org/2000/svg" width="407.025" height="252.742" role="img" aria-label="KOY Designs"><title>KOY Designs</title><desc>The initials KOY (Klarence OuYang) with the word DESIGN underneath. The letters K,o,and y, form the shape of a koi fish heading towards a hook.</desc><defs><clipPath id="b" clipPathUnits="userSpaceOnUse"><path d="M-299.921 10.98H5.348v-189.557h-305.27Z"/></clipPath><clipPath id="g" clipPathUnits="userSpaceOnUse"><path d="M-215.537 169.133H89.732V-20.424h-305.27Z"/></clipPath><clipPath id="h" clipPathUnits="userSpaceOnUse"><path d="M-166.045 189.526h305.269V-.031h-305.27Z"/></clipPath><clipPath id="i" clipPathUnits="userSpaceOnUse"><path d="M-145.282 177.742h305.269V-11.815h-305.27Z"/></clipPath><clipPath id="j" clipPathUnits="userSpaceOnUse"><path d="M-129.687 71.252h305.27v-189.557h-305.27Z"/></clipPath><clipPath id="k" clipPathUnits="userSpaceOnUse"><path d="M-129.513 91.88h305.27V-97.679h-305.27Z"/></clipPath><clipPath id="l" clipPathUnits="userSpaceOnUse"><path d="M-122.445 75.838h305.269v-189.557h-305.27Z"/></clipPath><clipPath id="m" clipPathUnits="userSpaceOnUse"><path d="M-129.21 87.287h305.269V-102.27h-305.27Z"/></clipPath><clipPath id="n" clipPathUnits="userSpaceOnUse"><path d="M-113.954 139.62h305.269V-49.939h-305.27Z"/></clipPath><clipPath id="o" clipPathUnits="userSpaceOnUse"><path d="M869.951 679.926h305.269V490.369H869.951Z"/></clipPath><clipPath id="p" clipPathUnits="userSpaceOnUse"><path d="M-82.472 169.133h305.27V-20.424h-305.27Z"/></clipPath><clipPath id="q" clipPathUnits="userSpaceOnUse"><path d="M-50.507 186.103h305.269V-3.454H-50.507Z"/></clipPath><clipPath id="r" clipPathUnits="userSpaceOnUse"><path d="M-17.218 119.92h305.27V-69.635h-305.27Z"/></clipPath><clipPath id="s" clipPathUnits="userSpaceOnUse"><path d="M-13.77 178.454h305.268V-11.103H-13.77Z"/></clipPath><clipPath id="a" clipPathUnits="userSpaceOnUse"><path d="M0 0h1632v1056H0Z"/></clipPath><linearGradient id="c" x1="0" x2="1" y1="0" y2="0" gradientTransform="matrix(.792 0 0 -.792 1152.902 620.885)" gradientUnits="userSpaceOnUse" spreadMethod="pad"><stop offset="0" style="stop-opacity:1;stop-color:#92afa2"/><stop offset="1" style="stop-opacity:1;stop-color:#5daf8a"/></linearGradient><linearGradient id="d" x1="0" x2="1" y1="0" y2="0" gradientTransform="matrix(56.19434 0 0 -56.19434 1097.494 602.84)" gradientUnits="userSpaceOnUse" spreadMethod="pad"><stop offset="0" style="stop-opacity:1;stop-color:#92afa2"/><stop offset="1" style="stop-opacity:1;stop-color:#5daf8a"/></linearGradient><linearGradient id="e" x1="0" x2="1" y1="0" y2="0" gradientTransform="matrix(150.47461 0 0 -150.47461 973.428 662.728)" gradientUnits="userSpaceOnUse" spreadMethod="pad"><stop offset="0" style="stop-opacity:1;stop-color:#92afa2"/><stop offset=".024" style="stop-opacity:1;stop-color:#92afa2"/><stop offset=".362" style="stop-opacity:1;stop-color:#92afa2"/><stop offset=".931" style="stop-opacity:1;stop-color:#5daf8a"/><stop offset="1" style="stop-opacity:1;stop-color:#5daf8a"/></linearGradient><linearGradient id="f" x1="0" x2="1" y1="0" y2="0" gradientTransform="matrix(128.88184 0 0 -128.88184 958.637 568.326)" gradientUnits="userSpaceOnUse" spreadMethod="pad"><stop offset="0" style="stop-opacity:1;stop-color:#92afa2"/><stop offset=".024" style="stop-opacity:1;stop-color:#92afa2"/><stop offset=".362" style="stop-opacity:1;stop-color:#92afa2"/><stop offset=".931" style="stop-opacity:1;stop-color:#5daf8a"/><stop offset="1" style="stop-opacity:1;stop-color:#5daf8a"/></linearGradient></defs><g clip-path="url(#a)" transform="translate(-1159.935 -149.432)"><path d="m0 0-10.014-.644C-22.527-38.525 4.654-80.107 5.348-81.166c-10.62 10.93-17.416 21.822-21.526 32.083l-.779 2.042c-.006 0-.006-.006-.013-.006-3.397 9.191-4.672 17.836-4.653 25.504.024 14.63 4.474 25.535 6.968 30.504.186.372.372.712.532 1.022.625 1.188 2.147.984 2.147.984l1.282-1.176z" clip-path="url(#b)" style="fill:#5daf8a;fill-opacity:1;fill-rule:nonzero;stroke:none" transform="matrix(1.33333 0 0 -1.33333 1559.83 164.072)"/><path d="m1152.915 621.906.779-2.043h-.01c-.272.681-.532 1.362-.786 2.036.01 0 .01.007.013.007" style="fill:url(#c);stroke:none" transform="matrix(1.33333 0 0 -1.33333 0 1056)"/><path d="M1152.902 621.899c.254-.674.514-1.355.786-2.036-6.368-3.471-14.37-10.075-20.391-14.463a210.368 210.368 0 0 1-9.711-7.532c-3.465-2.847-7.396-6.213-12.52-10.7-6.64-1.015-13.244-3.274-13.572-3.385 11.685 10.255 20.213 17.662 28.215 23.523 3.967 2.922 7.903 5.496 11.994 7.761a93.735 93.735 0 0 0 12.885 5.941c.749.285 1.535.588 2.314.891" style="fill:url(#d);stroke:none" transform="matrix(1.33333 0 0 -1.33333 0 1056)"/><path d="M1123.902 664.633c-.365-.303-9.376-7.662-10.713-7.334-14.128-5.935-25.418-4.604-31-3.094-46.316 23.746-108.761-.297-108.761-.297 4.975 3.107 24.093 18.628 59.01 18.628 15.615 0 34.391-3.1 56.472-11.814 5.781-2.513 34.429 3.818 34.992 3.911" style="fill:url(#e);stroke:none" transform="matrix(1.33333 0 0 -1.33333 0 1056)"/><path d="M1054.798 559.461c9.351 10.304 19.786 43.333 20.423 50.822l12.298 5.267c-25.035-113.564-121.418-92.993-121.418-92.993l-7.464 8.349s53.904-14.569 90.331 22.781c0 0 .532 23.133-13.157 44.763-1.665 2.618-3.652 3.831-5.663 3.843-2.345.013-5.7-1.547-10.087-4.678l-2.278 3.391 5.347 3.558c5.186 3.51 8.844 5.762 10.954 6.759 1.207.563 2.309.847 3.312.842 1.008-.007 1.961-.588 2.865-1.746 4.177-5.335 7.679-12.526 10.502-21.568 2.779-8.912 5.415-27.305 4.035-29.39" style="fill:url(#f);stroke:none" transform="matrix(1.33333 0 0 -1.33333 0 1056)"/><path d="m0 0-.929-3.058c-.736.403-2.19.991-4.134.991-2.407 0-3.453-1.3-3.453-2.5 0-1.603 1.201-2.346 3.98-3.423C-.929-9.352.835-11.171.835-14.16c0-3.336-2.537-6.263-7.902-6.263-2.192 0-4.469.643-5.608 1.324l.823 3.15c1.238-.712 3.095-1.33 5.039-1.33 2.431 0 3.787 1.145 3.787 2.841 0 1.571-1.046 2.5-3.695 3.453-3.428 1.237-5.613 3.057-5.613 6.046 0 3.398 2.828 5.985 7.333 5.985C-2.748 1.046-1.083.557 0 0" clip-path="url(#g)" style="fill:#5daf8a;fill-opacity:1;fill-rule:nonzero;stroke:none" transform="matrix(1.33333 0 0 -1.33333 1447.318 374.943)"/><path d="M0 0h-.309v21.413h4.802l5.459-9.066a56.924 56.924 0 0 0 2.908-5.521c-.148 2.228-.21 4.468-.21 7.024v7.563h4.134V0h-4.4l-5.52 9.314c-1.095 1.863-2.241 3.942-3.181 5.935.092-2.271.118-4.654.118-7.507V0Z" clip-path="url(#h)" style="fill:#5daf8a;fill-opacity:1;fill-rule:nonzero;stroke:none" transform="matrix(1.33333 0 0 -1.33333 1381.328 402.133)"/><path d="M0 0v-10.521c-1.318-.495-3.918-1.169-6.69-1.169-3.515 0-6.17.891-8.145 2.772-1.856 1.764-2.927 4.505-2.902 7.656 0 6.566 4.691 10.793 11.573 10.793 2.556 0 4.56-.52 5.52-.984l-.829-3.057c-1.145.494-2.538.897-4.728.897-4.444 0-7.557-2.624-7.557-7.464 0-4.722 2.909-7.531 7.223-7.531 1.354 0 2.37.185 2.865.433v5.186h-3.67V0Z" clip-path="url(#i)" style="fill:#92afa2;fill-opacity:1;fill-rule:nonzero;stroke:none" transform="matrix(1.33333 0 0 -1.33333 1353.645 386.422)"/><path d="M0 0c4.666-1.002 8.193-3.732 10.472-8.107a18.107 18.107 0 0 0 1.59-4.375c.352-1.566.532-3.225.532-4.995 0-2.197-.273-4.555-.817-7.067-1.132-5.23-3.126-10.001-5.978-14.303-2.854-4.301-6.567-8.138-11.128-11.505-3.62-2.661-7.173-4.66-10.65-5.997-3.485-1.337-6.895-2.005-10.243-2.005-1.764 0-3.497.186-5.205.551-5.075 1.095-8.862 3.664-11.258 7.674a15.83 15.83 0 0 0-1.782 4.252 18.936 18.936 0 0 0-.594 4.809c0 1.757.21 3.613.631 5.569 1.065 4.945 2.798 9.556 5.2 13.82 2.394 4.264 5.463 8.194 9.196 11.777 3.72 3.527 7.544 6.176 11.473 7.946 3.93 1.77 7.965 2.662 12.1 2.662A30.51 30.51 0 0 0 0 0m-.13-.606a29.793 29.793 0 0 1-6.331.693c-4.048 0-7.99-.867-11.846-2.606-3.855-1.739-7.625-4.344-11.3-7.829-3.689-3.546-6.721-7.426-9.085-11.634-2.365-4.215-4.073-8.764-5.131-13.647-.408-1.918-.618-3.731-.618-5.439 0-1.647.191-3.194.569-4.655a15.662 15.662 0 0 1 1.714-4.084c1.157-1.931 2.637-3.509 4.443-4.741 1.808-1.225 3.948-2.11 6.418-2.649a24.04 24.04 0 0 1 5.075-.538c3.261 0 6.597.65 10.02 1.962 3.416 1.312 6.919 3.286 10.502 5.922 4.512 3.324 8.176 7.105 10.985 11.345 2.816 4.239 4.778 8.936 5.898 14.091.532 2.482.798 4.79.798 6.938a22.13 22.13 0 0 1-.513 4.858 17.399 17.399 0 0 1-1.541 4.221c-1.114 2.123-2.5 3.825-4.172 5.118C4.078-1.98 2.122-1.095-.13-.606" clip-path="url(#j)" style="fill:#5daf8a;fill-opacity:1;fill-rule:nonzero;stroke:none" transform="matrix(1.33333 0 0 -1.33333 1332.85 244.435)"/><path d="M0 0c.211 1.665.316 3.193.316 4.592 0 2.302-.285 4.245-.867 5.83-1.262 3.466-3.416 5.595-6.387 6.225a8.996 8.996 0 0 1-1.88.199c-1.82-.007-3.707-.539-5.676-1.597-1.962-1.058-3.998-2.63-6.114-4.722-2.5-2.476-4.648-5.595-6.443-9.345-1.789-3.75-3.224-8.144-4.307-13.17-.613-2.822-.922-5.428-.922-7.816 0-2.798.421-5.298 1.268-7.501 1.152-3.014 3.231-4.889 6.133-5.508a9.846 9.846 0 0 1 2.073-.223c1.715 0 3.448.452 5.205 1.331 1.758.891 3.528 2.209 5.323 3.955 2.766 2.741 5.099 5.978 6.987 9.704 1.894 3.731 3.348 7.946 4.356 12.65C-.52-3.459-.21-1.665 0 0m11.642 8.008c.339-1.516.513-3.132.513-4.858 0-2.148-.266-4.456-.799-6.938-1.12-5.155-3.082-9.852-5.897-14.091-2.81-4.24-6.474-8.021-10.985-11.345-3.583-2.636-7.086-4.61-10.502-5.922-3.423-1.312-6.759-1.962-10.02-1.962-1.721 0-3.404.179-5.075.538-2.47.539-4.61 1.424-6.418 2.649-1.807 1.232-3.286 2.81-4.443 4.741a15.662 15.662 0 0 0-1.714 4.084 18.495 18.495 0 0 0-.57 4.655c0 1.708.21 3.521.619 5.439 1.058 4.883 2.766 9.432 5.13 13.647 2.365 4.208 5.397 8.088 9.085 11.634 3.676 3.485 7.446 6.09 11.301 7.829 3.856 1.739 7.798 2.606 11.846 2.606 2.079 0 4.195-.229 6.331-.693 2.252-.489 4.208-1.375 5.885-2.674 1.672-1.293 3.057-2.995 4.172-5.118.68-1.306 1.2-2.711 1.541-4.221" clip-path="url(#k)" style="fill:#5daf8a;fill-opacity:1;fill-rule:nonzero;stroke:none" transform="matrix(1.33333 0 0 -1.33333 1332.619 271.937)"/><path d="M0 0a8.188 8.188 0 0 1-1.751.186h-.019c-3.378 0-7.167-2.024-11.337-6.14-2.446-2.413-4.556-5.47-6.32-9.171-1.763-3.701-3.186-8.045-4.258-13.04-.606-2.785-.909-5.347-.909-7.68.012-2.736.414-5.162 1.232-7.278.55-1.43 1.293-2.568 2.234-3.417.946-.847 2.092-1.417 3.446-1.708a9.06 9.06 0 0 1 1.944-.21c1.603 0 3.249.421 4.932 1.269 1.684.848 3.405 2.123 5.168 3.837 2.711 2.692 5 5.873 6.864 9.543 1.856 3.676 3.292 7.841 4.295 12.501.415 1.919.723 3.701.934 5.341.204 1.646.31 3.15.31 4.518 0 2.253-.279 4.122-.829 5.613-.614 1.671-1.418 2.983-2.402 3.949C2.55-.922 1.374-.297 0 0m.13.606c2.971-.63 5.125-2.759 6.387-6.225.582-1.585.867-3.528.867-5.83 0-1.399-.106-2.927-.317-4.592a64.25 64.25 0 0 0-.934-5.397c-1.009-4.703-2.463-8.918-4.357-12.649-1.887-3.726-4.22-6.963-6.987-9.705-1.795-1.745-3.564-3.063-5.322-3.954-1.758-.879-3.49-1.331-5.205-1.331-.693 0-1.386.075-2.074.223-2.902.619-4.981 2.494-6.132 5.508-.848 2.203-1.269 4.703-1.269 7.501 0 2.388.31 4.994.922 7.816 1.083 5.026 2.519 9.42 4.308 13.17 1.795 3.75 3.942 6.869 6.442 9.345 2.116 2.092 4.152 3.664 6.114 4.722C-5.458.266-3.57.798-1.751.805-1.114.805-.482.737.13.606" clip-path="url(#l)" style="fill:#35644f;fill-opacity:1;fill-rule:nonzero;stroke:none" transform="matrix(1.33333 0 0 -1.33333 1323.195 250.55)"/><path d="M0 0c0-1.368-.105-2.872-.31-4.518a63.916 63.916 0 0 0-.934-5.34c-1.003-4.661-2.439-8.826-4.295-12.502-1.863-3.67-4.152-6.851-6.863-9.543-1.764-1.714-3.485-2.989-5.168-3.837-1.684-.848-3.329-1.269-4.933-1.269-.643 0-1.299.069-1.943.211-1.355.291-2.5.86-3.447 1.708-.941.848-1.683 1.986-2.234 3.416-.817 2.116-1.22 4.543-1.231 7.278 0 2.333.302 4.896.909 7.68 1.071 4.995 2.494 9.339 4.258 13.04 1.763 3.701 3.874 6.758 6.319 9.172 4.171 4.115 7.959 6.139 11.338 6.139h.018c.6 0 1.182-.062 1.751-.186 1.374-.297 2.55-.922 3.535-1.887.983-.966 1.788-2.278 2.401-3.949C-.278 4.122 0 2.253 0 0" clip-path="url(#m)" style="fill:#35644f;fill-opacity:1;fill-rule:nonzero;stroke:none" transform="matrix(1.33333 0 0 -1.33333 1332.215 265.815)"/><path d="M0 0c1.133-.031-12.291-6.214-13.38-6.146-40.716 2.488-78.603 53.149-85.398 62.278-.248.334-1.374 2.315-1.548 2.537 0 0 2.531 1.282 2.785 1.387 3.199 1.361 6.845 3.422 10.936 6.182 4.734 3.2 31.971 21.766 36.619 29.892l11.579-.142c-8.491-16.19-44.653-32.609-54.988-39.045C-90.962 53.91-56.058 1.386 0 0" clip-path="url(#n)" style="fill:#92afa2;fill-opacity:1;fill-rule:nonzero;stroke:none" transform="matrix(1.33333 0 0 -1.33333 1311.874 335.591)"/><path d="M977.352 490.709h-3.794v20.794h3.794z" clip-path="url(#o)" style="fill:#92afa2;fill-opacity:1;fill-rule:nonzero;stroke:none" transform="matrix(1.33333 0 0 -1.33333 0 1056)"/><path d="m0 0-.928-3.058c-.743.403-2.191.991-4.128.991-2.414 0-3.46-1.3-3.46-2.5 0-1.603 1.202-2.346 3.98-3.423C-.928-9.352.83-11.171.83-14.16c0-3.336-2.531-6.263-7.897-6.263-2.191 0-4.475.643-5.614 1.324l.83 3.15c1.238-.712 3.088-1.33 5.032-1.33 2.438 0 3.799 1.145 3.799 2.841 0 1.571-1.051 2.5-3.707 3.453-3.422 1.237-5.613 3.057-5.613 6.046 0 3.398 2.841 5.985 7.34 5.985 2.253 0 3.917-.489 5-1.046" clip-path="url(#p)" style="fill:#92afa2;fill-opacity:1;fill-rule:nonzero;stroke:none" transform="matrix(1.33333 0 0 -1.33333 1269.897 374.943)"/><path d="M0 0v-3.113h-12.551v20.794H-.464v-3.119h-8.299V9.196h7.835V6.108h-7.835V0Z" clip-path="url(#q)" style="fill:#677d73;fill-opacity:1;fill-rule:nonzero;stroke:none" transform="matrix(1.33333 0 0 -1.33333 1227.277 397.57)"/><path d="M0 0s6.387 2.711 10.645 1.826C-2.383-8.361-11.746-15.998-17.057-20.491c0 0 1.022 13.133.824 16.295l4.728 57.383c.273 6.238.705 18.398.705 18.398.898.347 14.693 4.834 14.693 4.834-2.284-4.097-7.984-18.016-10.1-50.432l-1.48-31.705C-4.215-1.751 0 0 0 0" clip-path="url(#r)" style="fill:#677d73;fill-opacity:1;fill-rule:nonzero;stroke:none" transform="matrix(1.33333 0 0 -1.33333 1182.892 309.326)"/><path d="M0 0c.031 4.598-2.63 7.222-7.383 7.222-1.201 0-2.061-.093-2.594-.217V-7.866c.533-.093 1.331-.093 2.099-.093C-2.939-7.99 0-5.273 0 0m.768 7.779C2.767 6.139 4.004 3.676 4.004.124c0-3.701-1.263-6.474-3.236-8.269-2.068-1.881-5.372-2.834-9.414-2.834-2.221 0-3.886.124-5.125.278V9.753c1.666.279 3.794.434 6.047.434 3.887 0 6.579-.805 8.492-2.408" clip-path="url(#s)" style="fill:#677d73;fill-opacity:1;fill-rule:nonzero;stroke:none" transform="matrix(1.33333 0 0 -1.33333 1178.296 387.37)"/></g></svg>