<?xml version="1.0" encoding="utf-8"?>
<!-- Generator: Adobe Illustrator 23.0.2, SVG Export Plug-In . SVG Version: 6.00 Build 0)  -->
<svg version="1.1" id="Layer_1" xmlns="http://www.w3.org/2000/svg" xmlns:xlink="http://www.w3.org/1999/xlink" x="0px" y="0px"
	 viewBox="0 0 400 400" style="enable-background:new 0 0 400 400;" xml:space="preserve">
<g>
	<path d="M303.88,265.76c0,38.52,0.04,76.85-0.02,115.18c-0.03,16.83-0.94,17.74-17.87,17.76c-56.17,0.07-112.35-0.09-168.52,0.24
		c-11.38,0.07-15.7-3.95-15.57-15.65c0.5-44.82,0.2-89.66,0.2-134.89c-10.17-2.14-20.1-3.49-29.56-6.36
		c-42.78-12.99-69.2-49.18-66.33-90.14c3.16-45.09,32.02-78.77,76.94-84.95c21.38-2.94,37.03-10.08,53.21-25.23
		c41.56-38.9,108.75-30.32,143.88,14.76c3.05,3.91,9.56,7.14,14.53,7.23c53.95,1.07,96.51,41.26,100.38,95.55
		c3.6,50.51-33.27,95.97-84.8,104.6C308.42,264.19,306.57,264.96,303.88,265.76z M286.92,330.8c0-22.69,0.38-44.45-0.16-66.18
		c-0.27-11,3-15.73,14.93-16.48c45.23-2.82,79.75-43.54,76.93-89.42c-2.74-44.46-42.69-80.31-87.61-77.66
		c-10.11,0.6-15.97-1.88-21.82-10.47c-29.5-43.29-91-50.45-126.07-12.35c-15.13,16.44-29.07,22.8-51.19,24.07
		c-50.78,2.9-81.47,51.22-64.68,98.27c12.1,33.9,39.57,46.98,73.42,49.93c18.49,1.61,18.4,1.74,18.35,20.18
		c-0.07,26.54-0.02,53.08-0.02,80.13C175.28,330.8,230.15,330.8,286.92,330.8z M119.36,381.09c55.93,0,111.37,0,166.86,0
		c0-11.23,0-21.53,0-32.15c-55.94,0-111.07,0-166.86,0C119.36,359.93,119.36,370.24,119.36,381.09z"/>
	<path d="M293.23,99.81c35.87,1.38,63.46,29.45,63.21,61.6c-0.03,3.8-5.03,7.56-7.73,11.34c-2.86-3.21-7.67-6.08-8.28-9.67
		c-5.01-29.52-16.56-42.13-45.09-46.95c-6.13-1.04-12.33-2.36-10.35-9.69C285.94,102.95,291.89,100.81,293.23,99.81z"/>
	<path d="M269.95,297.61c0,5.62,1.01,11.51-0.37,16.77c-0.85,3.23-5.07,6.98-8.35,7.64c-1.99,0.4-7.1-4.48-7.32-7.26
		c-0.86-11.18-0.96-22.51,0.03-33.67c0.26-2.94,5.45-5.44,8.37-8.15c2.57,3,6.5,5.65,7.39,9.08c1.27,4.89,0.32,10.36,0.32,15.58
		C270,297.61,269.98,297.61,269.95,297.61z"/>
</g>
</svg>
