
<svg width="30px" height="25px" viewBox="0 0 30 25" version="1.1" xmlns="http://www.w3.org/2000/svg" xmlns:xlink="http://www.w3.org/1999/xlink">
    <desc>Goat</desc>
    <defs></defs>
    <g id="Page-1" stroke="none" stroke-width="1" fill="none" fill-rule="evenodd">
        <g id="goat" transform="translate(-1036.000000, -919.000000)" fill="#000000" fill-rule="nonzero">
            <path d="M1886.33199,1170.37321 C1888.59281,1173.15663 1888.86478,1176.74193 1886.33199,1178.68248 L1847.15691,1230.27808 C1844.93289,1232.50336 1840.58557,1236.03307 1833.84262,1234.60289 L1813.11684,1230.27808 L1801.47624,1266.88859 C1799.25222,1271.33914 1795.6441,1273.56442 1790.65189,1273.56442 C1785.65968,1273.56442 1782.05157,1271.33914 1779.82755,1266.88859 L1756.54634,1216.96195 L1718.2885,1208.65267 L1640.1048,1395.07863 L1668.17712,1615.85988 C1668.17712,1620.31043 1663.17308,1628.12883 1655.42438,1628.12883 L1632.94573,1628.12883 C1624.13799,1628.12883 1623.04807,1619.19779 1620.82405,1615.85988 L1588.46736,1488.29161 L1571.82272,1459.99037 L1532.02767,1615.85988 C1532.02767,1619.19779 1530.04743,1628.12883 1523.5568,1628.12883 L1491.82905,1628.12883 C1483.48617,1628.12883 1483.48617,1620.31043 1483.48617,1615.85988 L1520.22077,1396.74759 L1295.64227,1396.74759 L1237.40376,1506.61462 L1248.35749,1609.82026 C1250.58151,1615.35977 1247.59465,1628.12883 1240.92259,1628.12883 L1214.86101,1628.12883 C1207.85259,1628.12883 1202.63902,1618.08515 1201.52701,1615.85988 L1157.48107,1455.01902 L1100.91057,1519.93076 L1110.82607,1615.85988 C1110.82607,1623.12196 1107.58262,1628.12883 1100.91057,1628.12883 L1070.87454,1628.12883 C1062.67608,1628.12883 1059.79885,1623.67828 1059.79885,1621.45301 L1039.33603,1531.57794 L1074.25784,1395.07863 L1074.25784,1154.25909 C1048.75261,1144.26903 1036,1128.75584 1036,1105.46147 C1036,1089.93189 1187.94302,1089.93189 1491.82905,1105.46147 C1545.06353,1106.57411 1597.74199,1088.26293 1649.86446,1050.52795 C1640.99205,1026.12095 1651.49698,996.086261 1659.83705,990.587569 C1668.17712,985.088876 1710.87116,1026.66543 1719.74358,1032.20494 C1727.50398,1036.65549 1733.88029,1035.82693 1738.8725,1029.71926 C1743.86471,1023.61159 1745.2488,1016.67537 1743.02479,1008.91058 C1733.04037,977.827747 1708.09114,954.521543 1668.17712,938.991964 C1667.06511,938.991964 1665.39709,938.435646 1663.17308,937.323008 C1649.85263,933.985096 1644.30441,929.546383 1646.52843,924.006869 C1646.52843,920.668956 1648.75245,919 1653.20048,919 C1685.35411,923.45055 1712.79944,935.93813 1735.53647,956.46274 C1758.27351,976.98735 1773.52222,996.6834 1781.28263,1015.55089 L1787.95468,1020.55776 C1791.29071,1025.00831 1794.89882,1029.44702 1798.77902,1033.8739 C1802.65923,1038.30078 1805.98342,1044.68069 1808.75162,1053.01363 C1811.51981,1061.34657 1812.3479,1069.95176 1811.23589,1078.82919 C1811.23589,1084.3687 1812.3479,1088.2511 1814.57192,1090.47637 L1886.33199,1170.37321 Z" id="Shape-Copy"></path>
        </g>
    </g>
</svg>