<?xml version="1.0" encoding="utf-8"?>
<!-- Generator: Adobe Illustrator 23.0.2, SVG Export Plug-In . SVG Version: 6.00 Build 0)  -->
<svg version="1.1" id="Layer_1" xmlns="http://www.w3.org/2000/svg" xmlns:xlink="http://www.w3.org/1999/xlink" x="0px" y="0px"
	 viewBox="0 0 400 400" style="enable-background:new 0 0 400 400;" xml:space="preserve">
<g>
	<path d="M261.55,4.51c10.74,0,21.47,0,32.21,0c0.97,0.54,1.87,1.32,2.91,1.57c4.53,1.1,9.2,1.7,13.63,3.08
		c45.68,14.23,73.84,44.83,84.97,91.28c0.27,1.13,1.14,2.12,1.73,3.18c0,13.77,0,27.53,0,41.3c-0.54,0.86-1.38,1.66-1.57,2.6
		c-6.77,34.1-26.08,59.66-53.87,79.56c-14.02,10.03-29.97,16.1-45.61,22.86c-21.06,9.1-36.07,24.21-45.13,45.28
		c-3.42,7.95-6.52,16.07-10.39,23.8c-19.42,38.88-48.23,66.42-92.14,75.49c-0.59,0.12-1.04,0.99-1.55,1.5c-14.04,0-28.08,0-42.12,0
		c-1.13-0.57-2.19-1.43-3.38-1.68c-48.12-10.26-84.44-47.46-93.49-95.73c-0.43-2.28-1.48-4.44-2.24-6.66c0-10.19,0-20.37,0-30.56
		c0.52-0.69,1.39-1.32,1.5-2.07c4.99-33.79,22.45-59.97,48.92-80.75c13.57-10.65,28.83-18.19,44.82-24.23
		c26.43-9.98,44.31-28.07,54.6-54.37c4.44-11.35,9.51-22.68,16-32.94c20.78-32.84,49.28-55.05,88.75-61.02
		C260.64,5.91,261.07,5.02,261.55,4.51z M251.63,116.58c-17.9,22.27-34.86,43.38-51.57,64.18c7.26,7.28,14.42,14.45,21.69,21.75
		c19.79-18.3,43.35-32.38,63.21-52.59C274.01,138.97,263.37,128.32,251.63,116.58z M181.69,198.73c-19.92,18.32-43.4,32.48-62.71,52
		c9.8,12.26,20.42,23.05,33.41,33.14c17.19-21.39,34.16-42.5,50.87-63.3C196.03,213.26,188.91,206.05,181.69,198.73z M200.4,335.44
		c-7.95-2.71-15.89-4.96-23.44-8.12c-7.68-3.22-14.98-7.34-22.67-11.17c-20.03,18.72-41.5,35.81-67.34,47.33
		C121.85,379.98,171.04,373.04,200.4,335.44z M248.09,85.16c10.94-8.89,21.21-18.09,32.36-26.05c11.19-7.98,23.26-14.73,34.63-21.81
		c-33.71-16.23-83.63-8.58-112.47,29.11C219.19,69.82,234.22,76.67,248.09,85.16z M365.01,87.28c-7.13,11.44-13.85,23.46-21.8,34.59
		c-7.96,11.15-17.17,21.41-26.06,32.36c8.55,13.81,15.3,28.94,18.85,45.65C374.86,168.79,380.47,119.7,365.01,87.28z M67.41,201.46
		C27.45,232.85,23.19,284,38.99,315.04c11.46-25.7,28.65-47.18,47.53-67.43C77.6,233.14,70.82,218.21,67.41,201.46z M99.57,269.98
		c-14.18,15.61-28.45,33.36-37.51,54.63c-2.12,4.97-3.01,10.5-4.21,15.82c-0.67,2.94,0.89,4.54,3.9,4.05
		c3.78-0.62,7.83-0.84,11.19-2.44c9.64-4.59,19.49-9.05,28.33-14.95c11.46-7.65,22.01-16.64,31.55-23.98
		C121.4,291.73,110.64,281.01,99.57,269.98z M303.62,131.43c10.58-11.41,21.57-24.63,29.94-39.7c4.37-7.86,8.32-16.2,10.81-24.8
		c3.11-10.73,1.2-12.06-8.83-9.02c-9.35,2.84-18.39,7.23-26.93,12.06c-14.36,8.13-27.03,18.67-37.55,28.59
		C281.94,109.54,292.62,120.33,303.62,131.43z M230.25,103.45c-10.8-6.16-22.22-10.93-34.72-12.94c-8.58-1.38-8.67-1.22-12.32,6.63
		c-5.73,12.31-11.64,24.53-17.64,36.71c-1.37,2.77-3.46,5.17-5.09,7.54c7.34,7.37,14.39,14.46,21.89,21.99
		C198.25,143.5,214.15,123.6,230.25,103.45z M298.84,172.09c-20.17,16.12-40.08,32.03-59.3,47.39c7.48,7.66,14.55,14.9,21.78,22.32
		c12.19-9.88,26.88-15.45,41.26-21.61c10.63-4.55,10.71-4.59,8.73-15.89C309.28,192.68,304.57,182.08,298.84,172.09z M104.46,229.23
		c20.17-16.12,40.07-32.01,59.25-47.34c-7.39-7.72-14.38-15.03-21.56-22.54c-12.3,10.04-27,15.56-41.37,21.76
		c-10.71,4.63-10.84,4.73-8.74,16.28C94.13,208.84,98.74,219.34,104.46,229.23z M221.31,237.49
		c-16.28,20.38-32.17,40.27-48.25,60.39c10.69,5.99,21.83,10.77,34.05,12.82c9.28,1.56,9.38,1.58,13.17-7.03
		c6.41-14.57,11.76-29.67,21.69-42.45c0.47-0.61,0.01-2.62-0.68-3.34C234.95,251.22,228.44,244.7,221.31,237.49z"/>
</g>
</svg>
